<svg width="24" height="24" viewBox="0 0 24 24" fill="none" xmlns="http://www.w3.org/2000/svg">
<g clip-path="url(#clip0_2356_10352)">
<path fill-rule="evenodd" clip-rule="evenodd" d="M11.2931 7.29279C11.4806 7.10532 11.735 7 12.0001 7C12.2653 7 12.5196 7.10532 12.7071 7.29279L14.7071 9.29279C14.8469 9.43264 14.9421 9.6108 14.9807 9.80476C15.0193 9.99871 14.9995 10.1997 14.9238 10.3824C14.8481 10.5651 14.72 10.7213 14.5556 10.8312C14.3912 10.9411 14.1979 10.9997 14.0001 10.9998H10.0001C9.80237 10.9997 9.60907 10.9411 9.44466 10.8312C9.28025 10.7213 9.15211 10.5651 9.07644 10.3824C9.00077 10.1997 8.98096 9.99871 9.01953 9.80476C9.0581 9.6108 9.15331 9.43264 9.29312 9.29279L11.2931 7.29279ZM9.07612 13.6168C9.15186 13.4341 9.28007 13.278 9.44454 13.1682C9.60901 13.0583 9.80235 12.9997 10.0001 12.9998H14.0001C14.1979 12.9998 14.3912 13.0585 14.5556 13.1684C14.72 13.2783 14.8481 13.4344 14.9238 13.6171C14.9995 13.7998 15.0193 14.0009 14.9807 14.1948C14.9421 14.3888 14.8469 14.5669 14.7071 14.7068L12.7071 16.7068C12.5196 16.8943 12.2653 16.9996 12.0001 16.9996C11.735 16.9996 11.4806 16.8943 11.2931 16.7068L9.29312 14.7068C9.15318 14.5669 9.05787 14.3887 9.01925 14.1947C8.98062 14.0007 9.00041 13.7996 9.07612 13.6168Z" fill="black" fill-opacity="0.54"/>
</g>
<defs>
<clipPath id="clip0_2356_10352">
<rect width="24" height="24" fill="white"/>
</clipPath>
</defs>
</svg>
